# AST/ASF file generated using VICON BodyLanguage
# -----------------------------------------------
:version 1.10
:name VICON
:units
  mass 1.0
  length 0.45
  angle deg
:documentation
   .ast/.asf automatically generated from VICON data using
   VICON BodyBuilder and BodyLanguage model FoxedUp or BRILLIANT.MOD
:root
   order TX TY TZ RX RY RZ
   axis XYZ
   position 0 0 0  
   orientation 0 0 0 
:bonedata
  begin
     id 1 
     name lhipjoint
     direction 0.716712 -0.619771 0.3197 
     length 2.67249 
     axis 0 0 0  XYZ
  end
  begin
     id 2 
     name lfemur
     direction 0.34202 -0.939693 0  
     length 7.04375  
     axis 0 0 20  XYZ
    dof rx ry rz
    limits (-160.0 20.0)
           (-70.0 70.0)
           (-60.0 70.0)
  end
  begin
     id 3 
     name ltibia
     direction 0.34202 -0.939693 0   
     length 8.12233   
     axis 0 0 20   XYZ
    dof rx
    limits (-10.0 170.0)
  end
  begin
     id 4 
     name lfoot
     direction 0.0986665 -0.271084 0.957485   
     length 1.97802   
     axis -90 7.62852e-016 20   XYZ
    dof rx rz
    limits (-45.0 90.0)
           (-70.0 20.0)
  end
  begin
     id 5 
     name ltoes
     direction 1.53569e-011 -4.21962e-011 1   
     length 0.991074   
     axis -90 7.62852e-016 20   XYZ
    dof rx
    limits (-90.0 20.0)
  end
  begin
     id 6 
     name rhipjoint
     direction -0.684484 -0.647907 0.334213   
     length 2.55643  
     axis 0 0 0  XYZ 
  end
  begin
     id 7 
     name rfemur
     direction -0.34202 -0.939693 0   
     length 7.00452   
     axis 0 0 -20   XYZ
    dof rx ry rz
    limits (-160.0 20.0)
           (-70.0 70.0)
           (-70.0 60.0)
  end
  begin
     id 8 
     name rtibia
     direction -0.34202 -0.939693 0   
     length 7.98545   
     axis 0 0 -20   XYZ
    dof rx
    limits (-10.0 170.0)
 end
 begin
     id 9 
     name rfoot
     direction -0.0877828 -0.241181 0.966502   
     length 2.17223  
     axis -90 -7.62852e-016 -20   XYZ
    dof rx rz
    limits (-45.0 90.0)
           (-20.0 70.0)
  end
  begin
     id 10 
     name rtoes
     direction -1.53586e-011 -4.22014e-011 1   
     length 1.0886   
     axis -90 -7.62852e-016 -20   XYZ
    dof rx
    limits (-90.0 20.0)
  end
  begin
     id 11 
     name lowerback
     direction -0.0470064 0.989573 -0.136149   
     length 2.05976   
     axis 0 0 0   XYZ
    dof rx ry rz
    limits (-20.0 45.0)
           (-30.0 30.0)
           (-30.0 30.0)
  end
  begin
     id 12 
     name upperback
     direction -0.00532895 0.998093 0.0615045   
     length 2.02286   
     axis 0 0 0   XYZ
    dof rx ry rz
    limits (-20.0 45.0)
           (-30.0 30.0)
           (-30.0 30.0)
  end
  begin
     id 13 
     name thorax
     direction 0.0171558 0.991502 0.128954   
     length 2.09196   
     axis 0 0 0   XYZ
    dof rx ry rz
    limits (-20.0 45.0)
           (-30.0 30.0)
           (-30.0 30.0)
  end
  begin
     id 14 
     name lowerneck
     direction 0.0221176 0.995362 0.0936194   
     length 1.70234   
     axis 0 0 0   XYZ
    dof rx ry rz
    limits (-20.0 45.0)
           (-30.0 30.0)
           (-30.0 30.0)
  end
  begin
     id 15 
     name upperneck
     direction -0.0237973 0.998511 -0.0490877   
     length 1.66068   
     axis 0 0 0   XYZ
    dof rx ry rz
    limits (-20.0 45.0)
           (-30.0 30.0)
           (-30.0 30.0)
  end
  begin
     id 16
     name head
     direction -0.00980141 0.999531 -0.0289958  
     length 1.82618  
     axis 0 0 0   XYZ
    dof rx ry rz
    limits (-20.0 45.0)
           (-30.0 30.0)
           (-30.0 30.0)
  end
  begin
     id 17 
     name lclavicle
     direction 0.894784 0.445864 -0.0238113  
     length 3.37997  
     axis 0 0 0   XYZ
    dof ry rz
    limits (-20.0 10.0)
           (0.0 20.0)
  end
  begin
     id 18 
     name lhumerus
     direction 1 -4.48975e-011 6.49229e-028   
     length 5.79016   
     axis 180 -30 -90   XYZ
    dof rx ry rz
    limits (-60.0 90.0)
           (-90.0 90.0)
           (-90.0 90.0)
  end
  begin
     id 19
     name lradius
     direction 1 -4.48959e-011 2.80427e-027   
     length 3.48314   
     axis 180 -30 -90   XYZ
    dof rx
    limits (-10.0 170.0)
  end
  begin
     id 20
     name lwrist
     direction 1 -4.48938e-011 5.60449e-029   
     length 1.74157   
     axis 8.48505e-016 90 90   XYZ
    dof ry
    limits (-180.0 0.0)
 end
  begin
     id 21 
     name lhand
     direction 1 -4.49048e-011 1.1209e-028   
     length 0.587065   
     axis -7.15228e-017 90 90   XYZ
    dof rx rz
    limits (-90.0 90.0)
           (-45.0 45.0)
  end
  begin
     id 22 
     name lfingers
     direction 1 -4.49036e-011 2.24179e-028   
     length 0.473307   
     axis -1.43046e-016 90 90   XYZ
    dof rx
    limits (0.0 90.0)
  end
  begin
     id 23
     name lthumb
     direction 0.707107 -6.34878e-011 0.707107   
     length 0.679577   
     axis -90 45 2.85299e-015   XYZ
    dof rx rz
    limits (-45.0 45.0)
           (-45.0 45.0)
  end
  begin
     id 24 
     name rclavicle
     direction -0.952963 0.303049 0.00480459   
     length 3.50503  
     axis 0 0 0   XYZ 
    dof ry rz
    limits (-10.0 20.0)
           (-20.0 0.0)
  end
  begin
     id 25 
     name rhumerus
     direction -1 -4.48973e-011 -1.5431e-027  
     length 5.69822   
     axis 180 30 90   XYZ
    dof rx ry rz
    limits (-90.0 60.0)
           (-90.0 90.0)
           (-90.0 90.0)
  end
  begin
     id 26 
     name rradius
     direction -1 -4.4896e-011 2.11972e-027   
     length 3.58077   
     axis 180 30 90   XYZ
    dof rx
    limits (-10.0 170.0)
  end
  begin
     id 27 
     name rwrist
     direction -1 -4.48943e-011 5.60449e-029   
     length 1.79039   
     axis 8.48505e-016 -90 -90   XYZ
    dof ry
    limits (-180.0 0.0)
  end
  begin
     id 28
     name rhand
     direction -1 -4.49007e-011 1.1209e-028   
     length 0.620156   
     axis -7.15228e-017 -90 -90   XYZ
    dof rx rz
    limits (-90.0 90.0)
           (-45.0 45.0)
  end
  begin
     id 29
     name rfingers
     direction -1 -4.49025e-011 2.24179e-028   
     length 0.499985   
     axis -1.43046e-016 -90 -90   XYZ
    dof rx
    limits (0.0 90.0)
  end
  begin
     id 30
     name rthumb
     direction -0.707107 -6.3481e-011 0.707107   
     length 0.717882   
     axis -90 -45 -2.85299e-015   XYZ
    dof rx rz
    limits (-45.0 45.0)
           (-45.0 45.0)
  end
:hierarchy
  begin
    root lhipjoint rhipjoint lowerback
    lhipjoint lfemur
    lfemur ltibia
    ltibia lfoot
    lfoot ltoes
    rhipjoint rfemur
    rfemur rtibia
    rtibia rfoot
    rfoot rtoes
    lowerback upperback
    upperback thorax
    thorax lowerneck lclavicle rclavicle
    lowerneck upperneck
    upperneck head
    lclavicle lhumerus
    lhumerus lradius
    lradius lwrist
    lwrist lhand lthumb
    lhand lfingers
    rclavicle rhumerus
    rhumerus rradius
    rradius rwrist
    rwrist rhand rthumb
    rhand rfingers
  end

#!OML:ASF H:\Terrain\Patient Classification 1\PaulMetrics\March17Take4\PaulMetrics.ASF
:FULLY-SPECIFIED
:DEGREES
536
root 17.0136 17.4365 -0.720989 -169.789 -7.14515 -176.741
lowerback -0.579226 2.54517 -2.00922
upperback -3.64707 3.20673 -1.18263
thorax -3.47008 1.58433 -0.170231
lowerneck -5.75282 6.70617 6.73713
upperneck 14.5169 8.81382 -5.8165
head 5.89406 4.10354 -2.31389
rclavicle 6.17226e-014 3.02153e-014
rhumerus -44.018 16.7409 -87.129
rradius 58.8813
rwrist -11.8921
rhand -16.1993 -34.8513
rfingers 7.12502
rthumb 10.0079 -64.5933
lclavicle 6.17226e-014 3.02153e-014
lhumerus -51.1774 -12.8671 86.0798
lradius 34.9745
lwrist 17.2541
lhand -7.40426 -15.7812
lfingers 7.12502
lthumb 18.482 13.3608
rfemur 13.6898 4.61162 29.3747
rtibia -9.54166e-015
rfoot -13.711 -12.1763
rtoes -0.0338155
lfemur -42.9782 -4.89697 -17.898
ltibia 25.4252
lfoot -14.0269 12.6554
ltoes -1.05718
537
root 16.9824 17.4043 -0.885003 -169.957 -7.08458 -176.636
lowerback -0.64028 2.4778 -2.3179
upperback -3.58252 3.13048 -0.88861
thorax -3.40187 1.56283 0.309326
lowerneck -5.30139 6.83925 6.48503
upperneck 14.2444 9.03668 -5.85546
head 5.73567 4.20501 -2.28523
rclavicle 3.29486e-014 3.97569e-015
rhumerus -44.0651 17.3084 -87.1141
rradius 58.5083
rwrist -12.1157
rhand -16.494 -34.6371
rfingers 7.12502
rthumb 9.72355 -64.3926
lclavicle 3.29486e-014 3.97569e-015
lhumerus -51.0117 -12.3665 86.244
lradius 34.9361
lwrist 17.1841
lhand -7.67039 -15.6303
lfingers 7.12502
lthumb 18.226 13.5358
rfemur 14.4199 4.42983 29.4156
rtibia -3.18055e-015
rfoot -13.501 -11.9203
rtoes -1.3566
lfemur -42.7585 -4.47903 -18.1585
ltibia 26.2839
lfoot -13.7841 11.9991
ltoes -1.11074
538
root 16.953 17.3727 -1.04308 -169.955 -7.04399 -176.654
lowerback -0.735239 2.44002 -2.63517
upperback -3.6456 3.07701 -0.750529
thorax -3.43843 1.54689 0.631111
lowerneck -5.14059 6.85366 6.24015
upperneck 14.2707 9.06464 -5.73856
head 5.70118 4.21192 -2.21345
rclavicle 4.87022e-015 2.62396e-014
rhumerus -44.2325 17.6515 -87.1929
rradius 58.2877
rwrist -12.4525
rhand -16.8181 -34.6756
rfingers 7.12502
rthumb 9.4109 -64.4455
lclavicle 4.87022e-015 2.62396e-014
lhumerus -50.8941 -11.8918 86.1719
lradius 34.883
lwrist 16.8218
lhand -8.91074 -16.856
lfingers 7.12502
lthumb 17.0324 12.4173
rfemur 14.9658 4.23234 29.3321
rtibia 1.59028e-014
rfoot -13.079 -11.6746
rtoes -2.35732
lfemur -42.7478 -3.99774 -18.5484
ltibia 27.2316
lfoot -13.3428 11.5075
ltoes -1.70258
539
root 16.9163 17.3524 -1.20952 -170.106 -6.92709 -176.834
lowerback -0.649284 2.43951 -2.80011
upperback -3.6758 3.06249 -0.884414
thorax -3.51999 1.5414 0.580991
lowerneck -5.61557 6.84002 6.19527
upperneck 14.8116 8.99363 -5.43887
head 5.93227 4.17544 -2.09797
rclavicle -1.77912e-014 2.54444e-014
rhumerus -44.4791 17.7046 -87.4531
rradius 57.9568
rwrist -12.2397
rhand -16.9156 -34.0991
rfingers 7.12502
rthumb 9.31677 -63.8732
lclavicle -1.77912e-014 2.54444e-014
lhumerus -50.8649 -11.767 85.886
lradius 34.9818
lwrist 16.5991
lhand -9.4017 -17.0612
lfingers 7.12502
lthumb 16.5597 12.2522
rfemur 15.7411 4.06191 29.0439
rtibia -9.54166e-015
rfoot -12.5703 -11.4827
rtoes -5.07266
lfemur -42.4533 -3.38541 -19.1766
ltibia 28.2085
lfoot -13.0335 11.1638
ltoes 0.0260411
540
root 16.8733 17.347 -1.38451 -170.215 -6.81387 -177.039
lowerback -0.568685 2.53809 -2.77725
upperback -3.75258 3.16891 -1.22671
thorax -3.62809 1.58441 0.208039
lowerneck -5.97133 6.78242 6.44275
upperneck 15.2082 8.83141 -5.1347
head 6.10702 4.12007 -2.03992
rclavicle -6.21202e-015 1.51076e-014
rhumerus -44.7919 17.1754 -87.7808
rradius 57.5079
rwrist -11.1076
rhand -16.7611 -33.8221
rfingers 7.12502
rthumb 9.46585 -63.5895
lclavicle -6.21202e-015 1.51076e-014
lhumerus -50.9585 -12.2555 85.6114
lradius 35.29
lwrist 16.8258
lhand -8.45079 -15.7892
lfingers 7.12502
lthumb 17.475 13.4454
rfemur 16.4876 3.90412 28.6612
rtibia -6.36111e-015
rfoot -12.3357 -11.1859
rtoes -8.17223
lfemur -42.2444 -2.85095 -19.8221
ltibia 29.1778
lfoot -12.1418 11.3121
ltoes 2.35879
